<svg width="28" height="28" viewBox="0 0 28 28" fill="none" xmlns="http://www.w3.org/2000/svg">
<g clip-path="url(#clip0_125_12)">
<path d="M14 0C6.28075 0 0 6.28075 0 14C0 21.7192 6.28075 28 14 28C21.7192 28 28 21.7192 28 14C28 6.28075 21.7192 0 14 0ZM14 26.25C7.245 26.25 1.75 20.755 1.75 14C1.75 7.245 7.245 1.75 14 1.75C20.755 1.75 26.25 7.245 26.25 14C26.25 20.755 20.755 26.25 14 26.25Z" fill="#787878"/>
<path d="M21 13.125H7V14.875H21V13.125Z" fill="#787878"/>
</g>
<defs>
<clipPath id="clip0_125_12">
<rect width="28" height="28" fill="white"/>
</clipPath>
</defs>
</svg>
