<svg width="27" height="27" viewBox="0 0 27 27" fill="none" xmlns="http://www.w3.org/2000/svg">
<path d="M13.2591 24.5946C13.0516 24.3511 12.7863 24.0345 12.48 23.657C11.7142 22.7134 10.6942 21.3928 9.67548 19.8829C8.65552 18.3712 7.645 16.6818 6.89147 14.9998C6.13408 13.3092 5.65854 11.6745 5.65854 10.2591C5.65854 6.05672 9.05672 2.65854 13.2591 2.65854C17.4616 2.65854 20.8598 6.05672 20.8598 10.2591C20.8598 11.6745 20.3842 13.3092 19.6268 14.9998C18.8733 16.6818 17.8628 18.3712 16.8428 19.8829C15.8241 21.3928 14.8041 22.7134 14.0383 23.657C13.7319 24.0345 13.4667 24.3511 13.2591 24.5946ZM9.65092 10.2591C9.65092 12.2511 11.2672 13.8674 13.2591 13.8674C15.2511 13.8674 16.8674 12.2511 16.8674 10.2591C16.8674 8.26722 15.2511 6.65092 13.2591 6.65092C11.2672 6.65092 9.65092 8.26722 9.65092 10.2591Z" stroke="#FAFAFA" stroke-width="1.31707"/>
</svg>
