<svg width="27" height="27" viewBox="0 0 27 27" fill="none" xmlns="http://www.w3.org/2000/svg">
<path d="M13.5275 24.5702C13.3199 24.3267 13.0547 24.0101 12.7483 23.6326C11.9825 22.689 10.9625 21.3684 9.94379 19.8585C8.92383 18.3468 7.91331 16.6573 7.15978 14.9754C6.40239 13.2848 5.92685 11.6501 5.92685 10.2347C5.92685 6.0323 9.32503 2.63412 13.5275 2.63412C17.7299 2.63412 21.1281 6.0323 21.1281 10.2347C21.1281 11.6501 20.6525 13.2848 19.8951 14.9754C19.1416 16.6573 18.1311 18.3468 17.1111 19.8585C16.0924 21.3684 15.0724 22.689 14.3066 23.6326C14.0003 24.0101 13.735 24.3267 13.5275 24.5702ZM9.91923 10.2347C9.91923 12.2267 11.5355 13.843 13.5275 13.843C15.5194 13.843 17.1357 12.2267 17.1357 10.2347C17.1357 8.2428 15.5194 6.6265 13.5275 6.6265C11.5355 6.6265 9.91923 8.2428 9.91923 10.2347Z" stroke="#FAFAFA" stroke-width="1.31707"/>
</svg>
