<svg width="27" height="21" viewBox="0 0 27 21" fill="none" xmlns="http://www.w3.org/2000/svg">
<path d="M3.375 0.375C1.51104 0.375 0 1.88604 0 3.75V17.25C0 19.114 1.51104 20.625 3.375 20.625H23.625C25.489 20.625 27 19.114 27 17.25V3.75C27 1.88604 25.489 0.375 23.625 0.375H3.375ZM2.25 4.35208L11.6279 10.604C12.7615 11.3598 14.2385 11.3598 15.3721 10.604L24.75 4.35208V17.25C24.75 17.8713 24.2463 18.375 23.625 18.375H3.375C2.75368 18.375 2.25 17.8713 2.25 17.25V4.35208ZM23.2844 2.625L14.124 8.73189C13.7462 8.98382 13.2538 8.98382 12.876 8.73189L3.71562 2.625H23.2844Z" fill="#FAFAFA"/>
</svg>
