<svg width="27" height="27" viewBox="0 0 27 27" fill="none" xmlns="http://www.w3.org/2000/svg">
<g clip-path="url(#clip0_39_162)">
<path d="M27 0H0V27H27V0Z" fill="white" fill-opacity="0.01"/>
<path d="M13.5 11.25C15.6746 11.25 17.4375 9.48712 17.4375 7.3125C17.4375 5.13788 15.6746 3.375 13.5 3.375C11.3254 3.375 9.5625 5.13788 9.5625 7.3125C9.5625 9.48712 11.3254 11.25 13.5 11.25Z" stroke="#FAFAFA" stroke-width="1.07317" stroke-linecap="round" stroke-linejoin="round"/>
<path d="M3.375 22.95V23.625H23.625V22.95C23.625 20.4298 23.625 19.1697 23.1346 18.2071C22.7031 17.3603 22.0147 16.6719 21.1679 16.2404C20.2053 15.75 18.9452 15.75 16.425 15.75H10.575C8.05477 15.75 6.79466 15.75 5.83206 16.2404C4.98531 16.6719 4.2969 17.3603 3.86547 18.2071C3.375 19.1697 3.375 20.4298 3.375 22.95Z" stroke="#FAFAFA" stroke-width="1.07317" stroke-linecap="round" stroke-linejoin="round"/>
</g>
<defs>
<clipPath id="clip0_39_162">
<rect width="27" height="27" fill="white"/>
</clipPath>
</defs>
</svg>
