<svg width="27" height="27" viewBox="0 0 27 27" fill="none" xmlns="http://www.w3.org/2000/svg">
<g clip-path="url(#clip0_39_166)">
<path d="M26.7244 0H0.275391V26.449H26.7244V0Z" fill="white" fill-opacity="0.01"/>
<path d="M9.64093 4.23511C10.0413 4.23511 10.4101 4.45222 10.6044 4.80225L11.9525 7.23049C12.129 7.54843 12.1373 7.93299 11.9746 8.25826L10.676 10.8556C10.676 10.8556 11.0523 12.7905 12.6274 14.3655C14.2024 15.9405 16.1308 16.3104 16.1308 16.3104L18.7277 15.0119C19.0532 14.8492 19.438 14.8576 19.7561 15.0344L22.1912 16.3883C22.5409 16.5827 22.7578 16.9514 22.7578 17.3515V20.1471C22.7578 21.5707 21.4354 22.599 20.0865 22.1438C17.3159 21.209 13.0154 19.4291 10.2896 16.7032C7.56381 13.9775 5.78386 9.67691 4.84903 6.90644C4.39388 5.55748 5.42213 4.23511 6.84577 4.23511H9.64093Z" stroke="#FAFAFA" stroke-width="1.95918" stroke-linejoin="round"/>
</g>
<defs>
<clipPath id="clip0_39_166">
<rect width="27" height="27" fill="white"/>
</clipPath>
</defs>
</svg>
