<svg width="228" height="50" viewBox="0 0 228 50" fill="none" xmlns="http://www.w3.org/2000/svg">
<path d="M98.5032 35.3064V46.3996L100.174 49.2215H128.138L129.634 46.9251L128.372 46.9285L127.351 48.4147H100.803L99.5007 46.0682L99.5275 40.94V40.766L99.5007 35.6378L100.803 33.298H127.351L128.372 34.7775L129.634 34.7809L128.138 32.4846H100.174L98.5032 35.3064Z" fill="white"/>
<path d="M95.1562 32.4846H80.5918V33.2946H94.5269L95.8291 35.6378L95.8023 40.766V40.9367L95.8291 46.0649L94.5269 48.4114H80.5918V49.2181H95.1562L96.8266 46.3963V35.3031L95.1562 32.4812V32.4846Z" fill="white"/>
<path d="M67.5334 32.4846H82.0978V33.2946H68.1627L66.8606 35.6378L66.8873 40.766V40.9367L66.8606 46.0649L68.1627 48.4114H82.0978V49.2181H67.5334L65.863 46.3963V35.3031L67.5334 32.4812V32.4846Z" fill="white"/>
<path d="M31.1306 35.293V46.3829L29.4603 49.2047H1.49628L0 46.9084L1.26196 46.9118L2.28291 48.398H28.831L30.1331 46.0515L30.1063 40.9233V40.7526L30.1331 35.6244L28.831 33.2812H2.28291L1.26196 34.7608L0 34.7641L1.49628 32.4678H29.4603L31.1306 35.293Z" fill="white"/>
<path d="M5.85802 41.2346V40.4145H30.2939V41.2581C30.2939 41.2581 5.71743 41.1911 5.85802 41.2346Z" fill="white"/>
<path d="M162.606 34.7641L161.344 34.7608L160.323 33.2779H133.591L132.57 34.7608L131.308 34.7641L132.804 32.4678H161.11L162.606 34.7641Z" fill="white"/>
<path d="M147.271 49.2047H146.451V32.8026H147.295C147.295 32.8026 147.228 49.2985 147.271 49.2047Z" fill="white"/>
<path d="M165.919 32.4678L164.249 35.2897V49.2047H165.25L165.273 40.9233V40.7526L165.247 35.6244L166.549 33.2812H179.814V32.4712H165.919V32.4678Z" fill="white"/>
<path d="M193.204 32.4678L194.875 35.2897V49.2047H193.874L193.85 40.9233V40.7526L193.877 35.6244L192.575 33.2812H179.309V32.4712H193.204V32.4678Z" fill="white"/>
<path d="M164.665 41.3183V40.4982H193.87V41.3417C193.87 41.3417 164.497 41.2748 164.665 41.3183Z" fill="white"/>
<path d="M33.6243 49.2215H32.8042V32.4846H33.6477C33.6477 32.4846 33.5808 49.3185 33.6243 49.2215Z" fill="white"/>
<path d="M33.3099 41.335V40.5149H57.8295V41.3584C57.8295 41.3584 33.1693 41.2915 33.3099 41.335Z" fill="white"/>
<path d="M64.1891 48.4081C63.2117 48.398 62.1807 48.3779 62.1807 48.3779V49.2215H64.1891V48.4081Z" fill="white"/>
<path d="M57.8861 40.5383L57.1831 40.9534L62.1908 49.2214L62.9138 48.793C62.9138 48.793 57.8191 40.5116 57.8861 40.535V40.5383Z" fill="white"/>
<path d="M64.1891 33.298C63.2117 33.308 62.1807 33.3281 62.1807 33.3281V32.4846H64.1891V33.298Z" fill="white"/>
<path d="M57.8861 41.1707L57.1831 40.7556L62.1908 32.4876L62.9138 32.9161C62.9138 32.9161 57.8191 41.1975 57.8861 41.174V41.1707Z" fill="white"/>
<path d="M196.572 32.4678L196.548 38.0814V38.309L196.572 49.2081H197.572V32.4712H196.572V32.4678Z" fill="white"/>
<path d="M226.369 32.4678H196.568V33.2779H225.583L226.604 34.7608H227.866L226.369 32.4678Z" fill="white"/>
<path d="M226.37 42.7978H196.568V41.9878H225.583L226.604 40.5049H227.866L226.37 42.7978Z" fill="white"/>
<path d="M226.604 34.7608V40.5049L227.866 40.5016V34.7642L226.604 34.7608Z" fill="white"/>
<path d="M0 27V9.74248H2.36464V7.65217H6.16615V9.68228H10.0715V25.6856H13.2567V21.388H17.2659V20.0736H21.3789V21.2074H23.0234V18.9966H29.6015V17.6823H32.2743V18.8161H33.9188V11.709H35.6672V8.78261L36.6954 8.30434L37.8275 8.78261V11.3512H38.9596V9.97658H43.92V11.3813H45.3066V23.4716H45.9999V13.7525H49.1617V11.9164H53.9412V13.3946H54.7116V26.0669H66.6587V23.8261H67.5831V3.3612H68.8157V2.59866H71.1267V0H73.8263V0.357862H75.5981V2.46154H76.8306V18.7625H79.3761V17.5084H82.2298V16.8361H87.2404V25.301H89.94V15.8963H93.1788V14.3278H97.6502V15.6254H98.9598V26.0602H101.428V11.3278H104.205V9.13378H108.984V11.1505H109.755V18.8997H111.758V15.7191H113.838V13.7023L115.224 13.2107L116.38 13.7023V15.495H120.389V20.0167H121.313V8.55184H130.025V25.1672H133.11V21.3144H134.882V18.7625H136.499V16.8361H139.815V18.8963H143.439V25.8395H145.211V15.7191H153.691V25.8395H156.776V3.62542H160.554V0.177257H164.872V3.53512H165.873V25.8829H166.643V15.7625H176.048V25.2575H178.979V23.689H184.067V24.4047H187.845V26.3746H189.462V15.5819L192.122 14.0368H196.938V23.107H199.018V24.8094H210.041V26.0635H211.659V21.2709H215.899V20.0167H220.139V20.9565H221.834V11.0602H223.914V10.0736H228V26.8227C228 26.8227 0.0267948 26.9866 0 27Z" fill="white"/>
</svg>
