<svg width="25" height="25" viewBox="0 0 25 25" fill="none" xmlns="http://www.w3.org/2000/svg">
<path d="M7.95174 2.44951L8.3553 5.9844C8.40412 6.40005 8.35815 6.82135 8.22071 7.21666C8.08328 7.61197 7.85812 7.97099 7.56203 8.26676L5.00127 10.8275C7.01062 14.7782 10.2218 17.9894 14.1726 19.9988L16.7472 17.4241C17.3457 16.8257 18.1807 16.5334 19.0296 16.6308L22.5367 17.0345C23.2156 17.1133 23.8418 17.4391 24.296 17.9498C24.7502 18.4605 25.0008 19.1204 25 19.8039L25 22.2115C25 23.7841 23.6918 25.0923 22.1192 24.9949C10.2341 24.2573 0.742681 14.752 0.00511538 2.88093C-0.0923367 1.30832 1.21589 0.000134701 2.78848 0.00013477L5.19618 0.000134875C6.60176 -0.0137813 7.78473 1.0439 7.95174 2.44951Z" fill="white"/>
</svg>
