<svg width="25" height="25" viewBox="0 0 25 25" fill="none" xmlns="http://www.w3.org/2000/svg">
<path d="M12.5 0C19.4037 0 25 5.59625 25 12.5C25 19.4038 19.4037 25 12.5 25C10.2909 25.0036 8.12084 24.4189 6.21251 23.3063L0.00501789 25L1.69501 18.79C0.581383 16.8811 -0.00367264 14.71 1.73473e-05 12.5C1.73473e-05 5.59625 5.59626 0 12.5 0ZM8.23998 6.625L7.99004 6.635C7.82812 6.64486 7.66997 6.68738 7.525 6.75999C7.3894 6.83679 7.26562 6.93278 7.15751 7.04499C7.00751 7.18625 6.9225 7.30875 6.83125 7.42749C6.3689 8.02864 6.11997 8.76664 6.12375 9.52496C6.12625 10.1375 6.28626 10.7338 6.53625 11.2913C7.0475 12.4188 7.88872 13.6125 8.99872 14.7187C9.26624 14.985 9.52878 15.2525 9.8112 15.5012C11.1905 16.7156 12.8341 17.5913 14.6112 18.0588L15.3213 18.1675C15.5525 18.18 15.7838 18.1625 16.0162 18.1512C16.3802 18.1325 16.7358 18.0339 17.0575 17.8625C17.2212 17.7782 17.381 17.6864 17.5362 17.5875C17.5362 17.5875 17.59 17.5525 17.6924 17.475C17.8612 17.35 17.965 17.2613 18.105 17.115C18.2087 17.0075 18.2987 16.8812 18.3674 16.7375C18.465 16.5337 18.5624 16.145 18.6025 15.8213C18.6325 15.5737 18.6237 15.4387 18.62 15.355C18.615 15.2213 18.5037 15.0825 18.3824 15.0238L17.655 14.6975C17.655 14.6975 16.5674 14.2237 15.9025 13.9212C15.8329 13.8909 15.7583 13.8735 15.6824 13.87C15.597 13.8612 15.5105 13.8708 15.4291 13.8982C15.3476 13.9256 15.2728 13.9701 15.21 14.0287C15.2037 14.0262 15.12 14.0975 14.2162 15.1925C14.1644 15.2622 14.0929 15.3149 14.011 15.3438C13.9291 15.3727 13.8404 15.3767 13.7562 15.355C13.6748 15.3331 13.5951 15.3056 13.5175 15.2725C13.3625 15.2075 13.3088 15.1825 13.2025 15.1375C12.4851 14.8244 11.8209 14.4014 11.2337 13.8838C11.0763 13.7462 10.93 13.5962 10.78 13.4513C10.2882 12.9803 9.85963 12.4475 9.50503 11.8662L9.43123 11.7475C9.37826 11.6677 9.33541 11.5816 9.30378 11.4912C9.25621 11.3075 9.37998 11.16 9.37998 11.16C9.37998 11.16 9.68375 10.8275 9.825 10.6475C9.96249 10.4725 10.0787 10.3025 10.1537 10.1813C10.3012 9.94376 10.3475 9.69999 10.27 9.51124C9.91998 8.65624 9.55749 7.80501 9.18498 6.96C9.11126 6.7925 8.89252 6.6725 8.69375 6.64875C8.62621 6.64125 8.55875 6.63375 8.49121 6.62875C8.32338 6.62041 8.15521 6.62208 7.98747 6.63375L8.23878 6.62375L8.23998 6.625Z" fill="white"/>
</svg>
