<svg width="39" height="43" viewBox="0 0 39 43" fill="none" xmlns="http://www.w3.org/2000/svg">
<path d="M32.2212 21.1954C31.7939 21.1954 31.3841 21.3842 31.082 21.7202C30.7799 22.0562 30.6101 22.5119 30.6101 22.9871V32.9667C30.6101 33.2518 30.5083 33.5252 30.327 33.7268C30.1457 33.9284 29.8999 34.0417 29.6435 34.0417H9.022C8.76563 34.0417 8.51976 33.9284 8.33848 33.7268C8.1572 33.5252 8.05536 33.2518 8.05536 32.9667V10.0333C8.05536 9.74823 8.1572 9.47479 8.33848 9.27319C8.51976 9.07159 8.76563 8.95833 9.022 8.95833H24.4398C24.8671 8.95833 25.2768 8.76957 25.579 8.43357C25.8811 8.09756 26.0508 7.64185 26.0508 7.16667C26.0508 6.69149 25.8811 6.23577 25.579 5.89977C25.2768 5.56376 24.8671 5.375 24.4398 5.375H9.022C7.91238 5.37972 6.84942 5.87202 6.06479 6.74461C5.28017 7.61719 4.8375 8.79932 4.83325 10.0333V32.9667C4.8375 34.2007 5.28017 35.3828 6.06479 36.2554C6.84942 37.128 7.91238 37.6203 9.022 37.625H29.6435C30.7531 37.6203 31.8161 37.128 32.6007 36.2554C33.3853 35.3828 33.828 34.2007 33.8322 32.9667V22.9871C33.8322 22.5119 33.6625 22.0562 33.3604 21.7202C33.0582 21.3842 32.6485 21.1954 32.2212 21.1954Z" fill="#FAFAFA"/>
<path d="M17.2704 19.7083C16.9681 19.406 16.5741 19.2419 16.1676 19.2491C15.761 19.2562 15.3719 19.4341 15.0784 19.747C14.7848 20.0598 14.6085 20.4846 14.5848 20.936C14.5611 21.3874 14.6917 21.8321 14.9505 22.1808L18.527 26.3554C18.6767 26.5301 18.8567 26.6693 19.056 26.7648C19.2553 26.8602 19.4699 26.9099 19.687 26.9108C19.9028 26.9122 20.1167 26.8654 20.316 26.773C20.5153 26.6807 20.6958 26.5448 20.8469 26.3733L31.7699 13.8317C31.918 13.6623 32.0346 13.4621 32.1131 13.2425C32.1917 13.023 32.2306 12.7884 32.2276 12.5522C32.2246 12.3159 32.1798 12.0826 32.0957 11.8656C32.0116 11.6486 31.89 11.4522 31.7377 11.2875C31.5853 11.1228 31.4053 10.9931 31.2079 10.9057C31.0105 10.8184 30.7996 10.7752 30.5871 10.7785C30.3747 10.7818 30.1649 10.8317 29.9698 10.9251C29.7747 11.0186 29.5981 11.1539 29.45 11.3233L19.7031 22.5392L17.2704 19.7083Z" fill="#FAFAFA"/>
</svg>
